# xmcd
#
# Track frame offsets:
#	150
#	27913
#	51033
#	69933
#	114361
#	141895
#	157703
#	167455
#	183441
#	229556
#	269084
#	310524
#
# Disc length: 4355 seconds
#
# Revision: 1
# Processed by: cddbd v1.5.2PL0 Copyright (c) Steve Scherf et al.
# Submitted via: audiograbber 1.83.01
#
DISCID=8f11010c
DTITLE=Grateful Dead - 70-03-01 Family Dog at the Great Highway, San Francisco 
DTITLE=CA
DYEAR=1900
DGENRE=
TTITLE0=New Speedway Boogie Jam
TTITLE1=Casey Jones
TTITLE2=Big Boy Pete
TTITLE3=Morning Dew
TTITLE4=Hard To Handle
TTITLE5=Me and My Uncle
TTITLE6=Cryptical Envelopment
TTITLE7=Drums
TTITLE8=The Other One
TTITLE9=Cryptical Envelopment
TTITLE10=Black Peter
TTITLE11=BIODTL
EXTD=
EXTT0=
EXTT1=
EXTT2=
EXTT3=
EXTT4=
EXTT5=
EXTT6=
EXTT7=
EXTT8=
EXTT9=
EXTT10=
EXTT11=
PLAYORDER=
